<svg id="Gruppe_21" data-name="Gruppe 21" xmlns="http://www.w3.org/2000/svg" xmlns:xlink="http://www.w3.org/1999/xlink" width="30" height="25.318" viewBox="0 0 30 25.318">
  <defs>
    <clipPath id="clip-path">
      <rect id="Rechteck_12" data-name="Rechteck 12" width="30" height="25.318" fill="#fff"/>
    </clipPath>
  </defs>
  <g id="Gruppe_20" data-name="Gruppe 20" clip-path="url(#clip-path)">
    <path id="Pfad_29" data-name="Pfad 29" d="M0,26.606l4.1-7.626c.318-.593.633-1.188.954-1.779a.882.882,0,0,1,1.33-.382c.686.391,1.368.788,2.079,1.2a4.109,4.109,0,0,0-1.218,1.61,3.962,3.962,0,0,0,.978,4.429,3.906,3.906,0,0,0,4.518.572c1.715-.95,3.4-1.948,5.1-2.933a.428.428,0,0,1,.5-.012Q23.4,24.62,28.47,27.542a1.941,1.941,0,0,1,1.051,1.97,1.886,1.886,0,0,1-1.426,1.674,6.031,6.031,0,0,1-1.073.077c.161.1.39.228.612.37a1.971,1.971,0,0,1-.673,3.617,1.932,1.932,0,0,1-1.381-.243,3.338,3.338,0,0,0-.589-.286c.041.052.082.1.125.157a1.975,1.975,0,0,1-2.46,3c-.391-.21-.773-.439-1.173-.644a2.09,2.09,0,0,1,.563,1.8,1.972,1.972,0,0,1-2.811,1.433c-.114-.055-.223-.121-.333-.184l-2.124-1.227c.049-.094.09-.179.137-.26.306-.533.617-1.063.919-1.6a3.74,3.74,0,0,0-2.17-5.5.44.44,0,0,1-.241-.268,3.679,3.679,0,0,0-2.555-2.7.4.4,0,0,1-.3-.327,3.7,3.7,0,0,0-4.676-2.67.339.339,0,0,1-.382-.093,3.725,3.725,0,0,0-5.78.8c-.278.458-.539.927-.816,1.4A1.532,1.532,0,0,1,0,27.075v-.469" transform="translate(0 -15.354)" fill="#fff"/>
    <path id="Pfad_30" data-name="Pfad 30" d="M17.451,149.48a2.005,2.005,0,0,1-2.534.454,2.057,2.057,0,0,1-.875-2.469,2.024,2.024,0,0,1-1.551.752,1.952,1.952,0,0,1-1.785-2.826c.707-1.335,1.48-2.638,2.264-3.93a1.93,1.93,0,0,1,2.376-.727,1.974,1.974,0,0,1,1.194,2.183.29.29,0,0,0,.024.189c.1-.172.2-.345.305-.517a1.978,1.978,0,1,1,3.423,1.978c-.1.184-.208.367-.3.567a2.169,2.169,0,0,1,1.361-.588,1.726,1.726,0,0,1,1.368.484,3.326,3.326,0,0,1,.609.941,1.448,1.448,0,0,1-.009,1.145c-.142.349-.329.679-.519,1.064a2.158,2.158,0,0,1,1.252-.625,1.9,1.9,0,0,1,1.817.787,1.78,1.78,0,0,1,.209,1.963c-.541,1.037-1.126,2.054-1.754,3.041a1.91,1.91,0,0,1-2.4.628,1.982,1.982,0,0,1-1.109-2.231c.015-.072.028-.144.053-.27a2,2,0,0,1-2.6.395,2.028,2.028,0,0,1-.826-2.386" transform="translate(-9.665 -129.577)" fill="#fff"/>
    <path id="Pfad_31" data-name="Pfad 31" d="M118.518.655a11.386,11.386,0,0,1,1.131.268c.876.3,1.738.64,2.613.943a.62.62,0,0,0,.452-.043c.954-.533,1.9-1.086,2.843-1.632a.905.905,0,0,1,1.4.367q2.594,4.416,5.186,8.834a.909.909,0,0,1-.076,1.205.291.291,0,0,1-.425.053q-4-2.322-8.005-4.631c-.735-.425-1.473-.843-2.2-1.276a1.853,1.853,0,0,0-2.02.005q-2.516,1.467-5.044,2.912a2.193,2.193,0,1,1-2.274-3.75q2.4-1.426,4.843-2.79a5.147,5.147,0,0,1,1.07-.37,2.817,2.817,0,0,1,.492-.058l.013-.037" transform="translate(-102.336 0)" fill="#fff"/>
  </g>
</svg>
