<svg xmlns="http://www.w3.org/2000/svg" xmlns:xlink="http://www.w3.org/1999/xlink" width="30" height="37.2" viewBox="0 0 30 37.2">
  <defs>
    <clipPath id="clip-path">
      <rect id="Rechteck_9" data-name="Rechteck 9" width="30" height="37.2" fill="#fff"/>
    </clipPath>
  </defs>
  <g id="Gruppe_15" data-name="Gruppe 15" transform="translate(0 -2)">
    <g id="Gruppe_14" data-name="Gruppe 14" transform="translate(0 2)" clip-path="url(#clip-path)">
      <path id="Pfad_17" data-name="Pfad 17" d="M30.584,5.426V37H0V5.426A2.655,2.655,0,0,1,2.435,4.382c1.214.069,2.435.016,3.75.016C6.023,1.1,8.713,2.9,9.659,2.355L10.852,0h9.126l1.157,2.322c1.209.285,3.48-.871,3.274,2.077,1.343,0,2.534.055,3.717-.016a2.713,2.713,0,0,1,2.458,1.044M6.125,6.008H1.635V35.395H28.962V6.011H24.426c-.2,2.622-.2,2.622-2.766,2.622H9.085c-2.646,0-2.646,0-2.96-2.624m16.523.963V3.889a18.385,18.385,0,0,1-2.611-.023c-1.385-.2-.529-1.512-1-2.265H11.713c-.031.272-.067.469-.075.667C11.569,3.839,11.508,3.9,9.9,3.906c-.644,0-1.287,0-1.942,0V6.971Z" fill="#fff"/>
      <path id="Pfad_18" data-name="Pfad 18" d="M33.123,54.482c0-.662.038-1.189-.009-1.708-.069-.772-.761-1.135-1.337-.641-.559.48-.9.336-1.35-.092-.491-.463-.646-.824-.172-1.455.437-.583.286-1.241-.581-1.27-.774-.026-.965-.471-.848-1.025.088-.419.4-1.016.73-1.116.926-.275,1.16-.63.578-1.447-.746-1.047.413-1.258.807-1.9.29.182.525.324.753.476.657.436,1.2.135,1.273-.483.1-.886.575-.932,1.246-.961.691-.03.863.27,1,.917s.685,1.083,1.342.454c.575-.551.93-.2,1.35.166.466.407.623.767.187,1.354-.527.71-.214,1.107.611,1.382a1.462,1.462,0,0,1,.741,1.1,1.246,1.246,0,0,1-.731.949c-.717.207-1.133.7-.722,1.206,1.011,1.246-.17,1.5-.54,1.9-.726-.11-1.643-.4-1.739-.236a10.964,10.964,0,0,0-.725,2.436c2.006,0,3.709,0,5.412,0,2.867.01,2.92-.407,2.879,2.856a5.039,5.039,0,0,1-.042,1.467c-.131.392-.549.687-.84,1.025-.28-.34-.744-.651-.8-1.026a16.741,16.741,0,0,1-.038-2.515H35.222a9.922,9.922,0,0,1-.043,2.208c-.1.44-.625.782-.96,1.168-.344-.376-.882-.706-.988-1.14a9.976,9.976,0,0,1-.045-2.247H26.818a14.6,14.6,0,0,1-.039,2.442c-.071.407-.552.742-.847,1.11-.277-.352-.753-.684-.792-1.061a26.4,26.4,0,0,1-.034-3.2c.015-.841.517-1.1,1.3-1.1,2.175.023,4.35.008,6.715.008m3.11-6.291a2.069,2.069,0,0,0-2.085-2.12,2.108,2.108,0,1,0-.03,4.215,2.1,2.1,0,0,0,2.115-2.094" transform="translate(-18.889 -32.283)" fill="#fff"/>
      <path id="Pfad_19" data-name="Pfad 19" d="M55.9,114.663a1.912,1.912,0,1,1,.035,3.821,1.911,1.911,0,0,1-.035-3.821" transform="translate(-40.695 -86.382)" fill="#fff"/>
      <path id="Pfad_20" data-name="Pfad 20" d="M22.8,118.485a1.864,1.864,0,0,1-1.849-2.006,1.839,1.839,0,0,1,1.91-1.816,1.912,1.912,0,1,1-.061,3.822" transform="translate(-15.786 -86.382)" fill="#fff"/>
      <path id="Pfad_21" data-name="Pfad 21" d="M91.258,116.538a1.925,1.925,0,1,1-2.005-1.853,1.875,1.875,0,0,1,2.005,1.853" transform="translate(-65.851 -86.398)" fill="#fff"/>
    </g>
  </g>
</svg>
