<svg viewBox="0 0 20 20" xmlns="http://www.w3.org/2000/svg">
<path d="M2.91 3.333a6.333 6.333 0 0 1 5.57 3.32l.095.181 2.569 5.14a3.667 3.667 0 0 0 3.12 2.023l.16.003h.91v-1.31c0-.38.323-.69.721-.69a.74.74 0 0 1 .47.166l3.223 2.643a.67.67 0 0 1 0 1.049L16.525 18.5a.745.745 0 0 1-1.018-.075.673.673 0 0 1-.174-.45v-1.308h-.91a6.333 6.333 0 0 1-5.57-3.32l-.094-.181-2.57-5.14a3.667 3.667 0 0 0-3.12-2.023L2.91 6H1.334a1.333 1.333 0 0 1-.1-2.663l.1-.004H2.91Zm13.145-2c.173 0 .34.06.47.167l3.223 2.642a.67.67 0 0 1 0 1.05l-3.223 2.642a.745.745 0 0 1-1.018-.075.673.673 0 0 1-.174-.45V6h-4a1.333 1.333 0 0 1-.1-2.663l.1-.004h4V2.024c0-.381.324-.69.722-.69Z" fill="#ffffff" fill-rule="evenodd"/></svg>
