<svg xmlns="http://www.w3.org/2000/svg" xmlns:xlink="http://www.w3.org/1999/xlink" width="30" height="25.226" viewBox="0 0 30 25.226">
  <defs>
    <clipPath id="clip-path">
      <rect id="Rechteck_10" data-name="Rechteck 10" width="30" height="25.226" fill="#fff"/>
    </clipPath>
  </defs>
  <g id="Gruppe_17" data-name="Gruppe 17" transform="translate(0 0)">
    <g id="Gruppe_16" data-name="Gruppe 16" transform="translate(0 0)" clip-path="url(#clip-path)">
      <path id="Pfad_22" data-name="Pfad 22" d="M0,24.44c.055-.245.106-.49.167-.733a5.593,5.593,0,0,1,5.444-4.3c1.258-.015,2.517,0,3.776,0h.383a5.526,5.526,0,0,0,1.649,3.744c-3.587,1.382-5.015,4.056-4.728,7.8A26.909,26.909,0,0,1,0,29.654V24.44" transform="translate(0 -10.305)" fill="#fff"/>
      <path id="Pfad_23" data-name="Pfad 23" d="M31.466,36.612c0,.79-.008,1.581.006,2.371a.37.37,0,0,1-.253.4,13.116,13.116,0,0,1-3.552,1.032,23.613,23.613,0,0,1-10.631-.9c-.563-.17-.564-.168-.564-.747,0-1.415-.019-2.83.011-4.244a5.553,5.553,0,0,1,5.266-5.412c1.538-.067,3.083-.056,4.621.009a5.539,5.539,0,0,1,4.859,4.038,9.746,9.746,0,0,1,.228,1.733c.038.573.008,1.151.008,1.726" transform="translate(-8.749 -15.44)" fill="#fff"/>
      <path id="Pfad_24" data-name="Pfad 24" d="M42.189,19.477c1.531,0,3.024-.118,4.491.026a5.489,5.489,0,0,1,4.827,5.244c.056,1.559.02,3.122.011,4.684a.384.384,0,0,1-.2.262,10.9,10.9,0,0,1-3.085.966c-.957.159-1.924.258-2.93.389,0-.419-.005-.757,0-1.1a6.829,6.829,0,0,0-1.175-4.12,6.617,6.617,0,0,0-3.365-2.556c-.063-.022-.124-.05-.229-.092a5.489,5.489,0,0,0,1.652-3.706" transform="translate(-21.538 -10.325)" fill="#fff"/>
      <path id="Pfad_25" data-name="Pfad 25" d="M23.1,14.066a4.4,4.4,0,1,1,4.376,4.4,4.4,4.4,0,0,1-4.376-4.4" transform="translate(-12.271 -5.14)" fill="#fff"/>
      <path id="Pfad_26" data-name="Pfad 26" d="M11.031,0a4.392,4.392,0,0,1,4.386,4.336.551.551,0,0,1-.207.477A5.354,5.354,0,0,0,13.4,7.879a.571.571,0,0,1-.259.342,4.2,4.2,0,0,1-4.517-.152A4.21,4.21,0,0,1,6.641,4.027,4.373,4.373,0,0,1,11.031,0" transform="translate(-3.522 -0.003)" fill="#fff"/>
      <path id="Pfad_27" data-name="Pfad 27" d="M47.411,4.415a4.392,4.392,0,0,1-6.036,4.049.351.351,0,0,1-.254-.3,5.34,5.34,0,0,0-2.345-3.719.346.346,0,0,1-.143-.374,4.4,4.4,0,0,1,8.778.348" transform="translate(-20.524 0)" fill="#fff"/>
    </g>
  </g>
</svg>
