<svg id="Gruppe_23" data-name="Gruppe 23" xmlns="http://www.w3.org/2000/svg" xmlns:xlink="http://www.w3.org/1999/xlink" width="30" height="29.997" viewBox="0 0 30 29.997">
  <defs>
    <clipPath id="clip-path">
      <rect id="Rechteck_13" data-name="Rechteck 13" width="30" height="29.997" fill="#fff"/>
    </clipPath>
  </defs>
  <g id="Gruppe_22" data-name="Gruppe 22" clip-path="url(#clip-path)">
    <path id="Pfad_32" data-name="Pfad 32" d="M23.329,27.524a5.214,5.214,0,0,1-.824-.438c-.829-.66-1.64-1.342-2.447-2.029-.183-.156-.341-.229-.554-.079a.457.457,0,0,1-.182.081c-.689.108-.817.573-.844,1.184-.041.912-.151,1.822-.252,2.731a1.091,1.091,0,0,1-1.158,1.019q-2.075.008-4.151,0a1.091,1.091,0,0,1-1.145-1.032q-.179-1.646-.315-3.3c-.018-.218-.073-.36-.3-.412a.6.6,0,0,1-.218-.083c-.561-.411-.976-.189-1.429.235-.642.6-1.345,1.138-2.027,1.7a1.129,1.129,0,0,1-1.669-.082Q4.4,25.6,2.979,24.179a1.126,1.126,0,0,1-.084-1.667c.661-.8,1.317-1.6,1.993-2.39.2-.23.288-.431.095-.694a.217.217,0,0,1-.038-.092c-.11-.728-.62-.831-1.243-.862-.89-.043-1.778-.148-2.664-.247A1.1,1.1,0,0,1,0,17.05Q0,15.008,0,12.966a1.1,1.1,0,0,1,1.05-1.2c1.086-.118,2.174-.223,3.264-.31.254-.02.388-.107.444-.346a.848.848,0,0,1,.111-.278.827.827,0,0,0-.16-1.18C4.071,8.972,3.5,8.223,2.906,7.5a1.133,1.133,0,0,1,.083-1.693q1.418-1.422,2.84-2.84a1.12,1.12,0,0,1,1.643-.084C8.317,3.578,9.161,4.273,10,4.979a.341.341,0,0,0,.469.055.561.561,0,0,1,.214-.092c.693-.108.814-.579.842-1.188.043-.912.152-1.822.252-2.731A1.092,1.092,0,0,1,12.93,0Q15.006,0,17.081,0a1.091,1.091,0,0,1,1.146,1.031q.178,1.646.315,3.3c.018.218.071.362.3.41a.425.425,0,0,1,.155.061c.6.426,1.056.225,1.546-.249.616-.6,1.31-1.11,1.972-1.657a1.129,1.129,0,0,1,1.669.079Q25.6,4.393,27.02,5.816a1.136,1.136,0,0,1,.066,1.7c-.675.817-1.348,1.636-2.035,2.443a.4.4,0,0,0-.064.556.3.3,0,0,1,.056.121c.11.733.606.868,1.254.894.89.036,1.778.147,2.664.247A1.1,1.1,0,0,1,30,12.946q.006,2.042,0,4.083a1.1,1.1,0,0,1-1.048,1.2c-1.075.118-2.152.226-3.23.308-.281.021-.431.11-.49.378a.72.72,0,0,1-.1.247.827.827,0,0,0,.159,1.18c.641.681,1.209,1.431,1.806,2.153a1.137,1.137,0,0,1-.081,1.695c-.945.949-1.883,1.9-2.847,2.833a4.416,4.416,0,0,1-.835.5M23.673,15.1A8.676,8.676,0,1,0,15,23.657,8.683,8.683,0,0,0,23.673,15.1" transform="translate(0 0)" fill="#fff"/>
    <path id="Pfad_33" data-name="Pfad 33" d="M95.617,95.493a5.808,5.808,0,0,0-10.679-.018,7.266,7.266,0,0,1-1.946-7.48,7.566,7.566,0,0,1,14.391-.523,7.37,7.37,0,0,1-1.766,8.021m-5.343-4.43a3.327,3.327,0,0,0,3.33-3.28,3.328,3.328,0,1,0-6.656-.005,3.33,3.33,0,0,0,3.326,3.285" transform="translate(-75.277 -75.114)" fill="#fff"/>
  </g>
</svg>
