<svg id="Gruppe_13" data-name="Gruppe 13" xmlns="http://www.w3.org/2000/svg" xmlns:xlink="http://www.w3.org/1999/xlink" width="30" height="30.006" viewBox="0 0 30 30.006">
  <defs>
    <clipPath id="clip-path">
      <rect id="Rechteck_8" data-name="Rechteck 8" width="30" height="30.006" fill="#fff"/>
    </clipPath>
  </defs>
  <g id="Gruppe_12" data-name="Gruppe 12" clip-path="url(#clip-path)">
    <path id="Pfad_16" data-name="Pfad 16" d="M0,26.432a1.783,1.783,0,0,0,.062-.187A3.131,3.131,0,0,1,4.586,24.11c.06.031.12.065.158.086l4.088-4.1C6.4,16.684,6.416,13.266,8.906,9.825c-.025-.029-.065-.081-.112-.127C7.987,8.9,7.178,8.11,6.375,7.311A.282.282,0,0,0,6,7.237,2.469,2.469,0,0,1,3.2,6.78a2.481,2.481,0,0,1-.635-2.764A2.461,2.461,0,0,1,4.885,2.376,2.541,2.541,0,0,1,7.3,5.891a.359.359,0,0,0,.1.469C8.225,7.2,9.034,8.065,9.827,8.9c3.508-2.474,6.9-2.46,10.274-.045l4.089-4.092a3.106,3.106,0,0,1-.251-2.714A3.046,3.046,0,0,1,25.307.424a3.131,3.131,0,1,1-.059,5.4L21.133,9.941a7.96,7.96,0,0,1,.124,9.977c.372.389.722.769,1.087,1.134.844.841,1.7,1.671,2.541,2.513a.333.333,0,0,0,.447.085,2.524,2.524,0,0,1,2.991.719,2.552,2.552,0,0,1-2.732,4.053A2.521,2.521,0,0,1,23.8,25.95a6.716,6.716,0,0,1,.217-1.021.358.358,0,0,0-.033-.273c-1.231-1.226-2.471-2.443-3.727-3.679a8.031,8.031,0,0,1-4.537,1.954v1.788a2.694,2.694,0,0,1-.178,5.229c-.065.014-.129.039-.193.058h-.7c-.064-.02-.127-.044-.193-.058a2.686,2.686,0,0,1-.587-5.069c.138-.064.283-.116.411-.168V22.931a8,8,0,0,1-4.347-1.793L5.808,25.256c.021.039.054.1.085.158a3.123,3.123,0,0,1-2.04,4.5c-.113.028-.224.059-.336.088H2.7c-.062-.021-.123-.047-.186-.062A3.114,3.114,0,0,1,.08,27.583C.055,27.492.027,27.4,0,27.311v-.879M19.891,19.3a6.457,6.457,0,0,0-.03-8.669,6.525,6.525,0,0,0-9.754,8.67,5.1,5.1,0,0,1,2.967-3.5,3.018,3.018,0,0,1-.225-4.366,2.979,2.979,0,0,1,4.038-.239,2.885,2.885,0,0,1,1.065,1.954,3.008,3.008,0,0,1-1.041,2.648A5.1,5.1,0,0,1,19.891,19.3" transform="translate(0 0)" fill="#fff"/>
  </g>
</svg>
